<?xml version="1.0" encoding="utf-8"?>
<!-- Generator: Adobe Illustrator 19.0.0, SVG Export Plug-In . SVG Version: 6.00 Build 0)  -->
<svg version="1.1" id="Warstwa_1" xmlns="http://www.w3.org/2000/svg" xmlns:xlink="http://www.w3.org/1999/xlink" x="0px" y="0px"
	 viewBox="87.1 130.1 1055.8 208.9" style="enable-background:new 87.1 130.1 1055.8 208.9;" xml:space="preserve">
<style type="text/css">
	.st0{fill:#FFFFFF;}
	.st1{fill:#828282;}
	.st2{fill:#7FAED3;}
	.st3{fill:none;stroke:#000000;stroke-miterlimit:10;}
	.st4{fill:#424242;}
</style>
<g id="Warstwa_1_1_">
	<g id="XMLID_61_">
		<path id="XMLID_62_" class="st0" d="M275.4,314.1v-173l32.6-11v184H275.4z"/>
		<path id="XMLID_64_" class="st0" d="M338.6,170.3v-35h33.1v35H338.6z M338.6,314.1V181.8h32.8v132.3H338.6z"/>
	</g>
	<g id="XMLID_16_">
		<path id="XMLID_17_" class="st0" d="M642.9,308.9c-9.6,0-17.7-1.1-24.1-3.2c-6.5-2.1-11.6-5.4-15.6-9.8c-3.9-4.4-6.7-9.9-8.5-16.5
			c-1.7-6.6-2.6-14.4-2.6-23.4v-79.4h32.6v83.5c0,6.9,1.3,12,4,15.3s7.4,5,14.1,5h38.7c4.7,0,8.5-1.3,11.1-3.9
			c2.7-2.6,4.4-5.8,5.3-9.6v-90.4h32.8v132.3c-2.6,0-5.2-0.4-7.7-1.2c-2.5-0.8-4.8-2.1-6.9-3.8c-2-1.7-3.8-3.9-5.1-6.5
			c-1.4-2.6-2.2-5.8-2.6-9.6c-2.3,7.2-6.5,12.5-12.6,15.9s-14.9,5.1-26.3,5.1h-26.6V308.9z"/>
		<path id="XMLID_19_" class="st0" d="M799.2,308.9c-15.5,0-26.5-2.6-33-7.8c-6.5-5.2-9.7-13.4-9.7-24.5v-14.5
			c0-11.3,3.3-19.3,9.9-24.1c6.6-4.8,17.4-7.2,32.2-7.2h45.6c6.5,0,11.5,0.5,14.9,1.6s6.4,2.2,8.8,3.6v-15.4
			c0-6.2-1.9-10.3-5.6-12.3c-3.8-2-10.1-2.9-19.1-2.9h-76.4l3.2-28.7h77.4c10.8,0,19.6,1.1,26.5,3.3s12.2,5.2,16,8.9
			c3.8,3.8,6.5,8.2,8,13.2c1.5,5.1,2.2,10.5,2.2,16.2v90.6c-4.7,0-9.3-1.5-13.7-4.5s-7.3-8.5-8.6-16.3c-2,6-5.7,11-11.3,14.9
			s-13.2,5.9-23,5.9L799.2,308.9L799.2,308.9z M868,254.7c-2.8-1.1-6-2-9.6-2.7s-8.4-1-14.5-1H804c-5.2,0-9,1-11.3,3.1
			c-2.3,2-3.4,5.9-3.4,11.6c0,5.6,1.1,9.4,3.4,11.5c2.3,2.1,6,3.2,11,3.2h39.9c5.9,0,11.1-1,15.8-2.9c4.7-2,7.5-5.7,8.5-11.3
			L868,254.7L868,254.7z"/>
		<path id="XMLID_59_" class="st0" d="M1110.8,308.9V230c0-3.6-0.2-6.9-0.6-10s-1.2-5.8-2.5-8c-1.2-2.2-3-3.9-5.4-5.1
			c-2.4-1.2-5.5-1.8-9.4-1.8h-23.8c-6.9,0-11.7,1.3-14.5,3.9c-2.8,2.6-4.2,6.7-4.2,12.3V309H1019v-87.7c0-5.6-1.4-9.6-4.2-12.3
			c-2.8-2.6-7.4-3.9-14-3.9h-23.3c-4.7,0-8.4,1.1-10.9,3.2c-2.5,2.1-4.4,5.3-5.5,9.6V309h-31.8V176.6h30.6v19.1
			c2.8-5.7,6.7-10.3,11.8-13.8s12-5.3,20.8-5.3h10.3c12.6,0,22.4,1.8,29.5,5.5s12,10.2,14.8,19.5c2.5-8.8,6.7-15.2,12.7-19.1
			c6-3.9,14.2-5.9,24.5-5.9h11.5c9.5,0,17.2,1.1,23.3,3.2c6,2.1,10.8,5.4,14.3,9.8c3.5,4.4,6,9.9,7.4,16.5s2.1,14.4,2.1,23.4v79.4
			H1110.8z"/>
	</g>
	<g id="XMLID_12_">
		<path id="XMLID_13_" class="st0" d="M227.7,314.1l-16.3-39.2h-78.7l-16.3,39.2H87.1l71.5-168.6h26.8l71.5,168.6H227.7z
			 M172.1,178.7l-29.6,69.8h59.2L172.1,178.7z"/>
	</g>
</g>
<g id="Warstwa_6">
	<g id="XMLID_48_">
		<polygon id="XMLID_6_" class="st1" points="599.7,331.1 578.3,339 550.8,316.4 575.1,289.3 583.7,296.3 575.9,309 586.2,298.4 
			589.3,301 577.1,319.8 592.2,303.3 596,306.4 578.9,330.1 599,309.2 601.6,311.4 		"/>
		<rect id="XMLID_2_" x="408.5" y="172" class="st0" width="148.5" height="119.8"/>
		<g id="XMLID_5_">
			<path id="XMLID_9_" class="st2" d="M434.4,318.6c-10.7,0-19.5-0.9-26.4-2.8s-12.5-5-16.8-9.4c-4.2-4.4-7.2-10.2-8.9-17.5
				c-1.7-7.3-2.5-16.2-2.5-26.9v-61.4c0-10.7,0.8-19.6,2.5-26.9c1.7-7.3,4.7-13.1,8.9-17.5c4.2-4.4,9.8-7.5,16.8-9.4
				c6.9-1.9,15.7-2.8,26.4-2.8h92.2c10.3,0,19,0.9,26,2.8c7,1.9,12.7,5,16.9,9.4s7.2,10.2,9,17.5s2.7,16.2,2.7,26.9V262
				c0,10.7-0.9,19.6-2.7,26.9s-4.8,13.1-9,17.5s-9.9,7.5-16.9,9.4s-15.7,2.8-26,2.8L434.4,318.6L434.4,318.6z M546.9,200.8
				c0-8.6-1.5-14.5-4.6-17.6c-3-3.1-8.4-4.7-16-4.7h-91.9c-7.6,0-12.9,1.6-16,4.7c-3,3.1-4.6,9-4.6,17.6v61.4c0,4.4,0.3,8,1,10.8
				s1.8,5,3.4,6.7s3.7,2.9,6.3,3.6c2.6,0.7,5.9,1,9.8,1h91.9c7.8,0,13.2-1.5,16.1-4.6c3-3,4.4-8.9,4.4-17.5v-61.4H546.9z"/>
		</g>
		<g id="XMLID_24_">
			<polyline id="XMLID_7_" class="st3" points="546.3,291.8 528.4,277.5 453,249.2 			"/>
			<polyline id="XMLID_21_" class="st3" points="499.9,254.4 497.6,252.6 460.2,242.2 			"/>
			<polyline id="XMLID_23_" class="st3" points="551.9,280.4 534.3,265.7 491.3,197.6 			"/>
			<polyline id="XMLID_22_" class="st3" points="486.5,209.3 504.9,243.4 507.6,245.8 			"/>
			<path id="XMLID_20_" class="st2" d="M547.6,294.8l-17-13.8c0,0,6.9-3.3-24-25.8l-5.1,6.2c-3.5,3.8-8,1.5-4.7-3.8
				c0.2,0,12.6-15.5,12.6-15.5c5.2-6.4,9.4-2.5,4.5,3.6l-3.6,4.6c0,0,24.9,22.7,30.6,18.9c8.3,6.7,16.1,14,16.1,14L547.6,294.8z"/>
		</g>
		<g id="XMLID_26_">
			<path id="XMLID_25_" class="st4" d="M463.9,249.9l-10.8-2.3c-0.5-0.1-1.1,0.2-1.2,0.8l0,0c-0.1,0.5,0.2,1.1,0.8,1.2l10.8,2.3
				c0.5,0.1,1.1-0.2,1.2-0.8l0,0C464.8,250.6,464.4,250,463.9,249.9z"/>
			<path id="XMLID_27_" class="st4" d="M464.4,250.3l-7.6-8c-0.4-0.4-1-0.4-1.4,0l0,0c-0.4,0.4-0.4,1,0,1.4l7.6,8
				c0.4,0.4,1,0.4,1.4,0l0,0C464.8,251.3,464.8,250.7,464.4,250.3z"/>
			<path id="XMLID_29_" class="st4" d="M466.8,247l-9.9-4.9c-0.5-0.2-1.1,0-1.3,0.5l0,0c-0.2,0.5,0,1.1,0.5,1.3l9.9,4.9
				c0.5,0.2,1.1,0,1.3-0.5l0,0C467.5,247.9,467.3,247.3,466.8,247z"/>
			<path id="XMLID_28_" class="st4" d="M467.1,247.3l-7.6-8c-0.4-0.4-1-0.4-1.4,0l0,0c-0.4,0.4-0.4,1,0,1.4l7.6,8
				c0.4,0.4,1,0.4,1.4,0l0,0C467.5,248.3,467.5,247.7,467.1,247.3z"/>
			<path id="XMLID_31_" class="st4" d="M469.1,243.9l-9.9-4.9c-0.5-0.2-1.1,0-1.3,0.5l0,0c-0.2,0.5,0,1.1,0.5,1.3l9.9,4.9
				c0.5,0.2,1.1,0,1.3-0.5l0,0C469.8,244.7,469.6,244.1,469.1,243.9z"/>
			<path id="XMLID_30_" class="st4" d="M469.4,244.1l-7.6-8c-0.4-0.4-1-0.4-1.4,0l0,0c-0.4,0.4-0.4,1,0,1.4l7.6,8
				c0.4,0.4,1,0.4,1.4,0l0,0C469.8,245.1,469.8,244.5,469.4,244.1z"/>
			<path id="XMLID_33_" class="st4" d="M471.4,240.8l-9.9-4.9c-0.5-0.2-1.1,0-1.3,0.5l0,0c-0.2,0.5,0,1.1,0.5,1.3l9.9,4.9
				c0.5,0.2,1.1,0,1.3-0.5l0,0C472.1,241.7,471.9,241.1,471.4,240.8z"/>
			<path id="XMLID_32_" class="st4" d="M471.7,241l-7.6-8c-0.4-0.4-1-0.4-1.4,0l0,0c-0.4,0.4-0.4,1,0,1.4l7.6,8c0.4,0.4,1,0.4,1.4,0
				l0,0C472,242.1,472,241.4,471.7,241z"/>
			<path id="XMLID_35_" class="st4" d="M473.6,237.8l-9.9-4.9c-0.5-0.2-1.1,0-1.3,0.5l0,0c-0.2,0.5,0,1.1,0.5,1.3l9.9,4.9
				c0.5,0.2,1.1,0,1.3-0.5l0,0C474.3,238.6,474.1,238,473.6,237.8z"/>
			<path id="XMLID_34_" class="st4" d="M473.9,238l-7.6-8c-0.4-0.4-1-0.4-1.4,0l0,0c-0.4,0.4-0.4,1,0,1.4l7.6,8c0.4,0.4,1,0.4,1.4,0
				l0,0C474.3,239,474.3,238.4,473.9,238z"/>
			<path id="XMLID_37_" class="st4" d="M475.9,234.7l-9.9-4.9c-0.5-0.2-1.1,0-1.3,0.5l0,0c-0.2,0.5,0,1.1,0.5,1.3l9.9,4.9
				c0.5,0.2,1.1,0,1.3-0.5l0,0C476.6,235.5,476.4,234.9,475.9,234.7z"/>
			<path id="XMLID_36_" class="st4" d="M476.5,234.9l-7.6-8c-0.4-0.4-1-0.4-1.4,0l0,0c-0.4,0.4-0.4,1,0,1.4l7.6,8
				c0.4,0.4,1,0.4,1.4,0l0,0C476.9,235.9,476.9,235.3,476.5,234.9z"/>
			<path id="XMLID_39_" class="st4" d="M478.5,231.7l-9.9-4.9c-0.5-0.2-1.1,0-1.3,0.5l0,0c-0.2,0.5,0,1.1,0.5,1.3l9.9,4.9
				c0.5,0.2,1.1,0,1.3-0.5l0,0C479.2,232.5,479,231.9,478.5,231.7z"/>
			<path id="XMLID_38_" class="st4" d="M478.8,231.9l-7.6-8c-0.4-0.4-1-0.4-1.4,0l0,0c-0.4,0.4-0.4,1,0,1.4l7.6,8
				c0.4,0.4,1,0.4,1.4,0l0,0C479.1,232.9,479.1,232.3,478.8,231.9z"/>
			<path id="XMLID_41_" class="st4" d="M480.8,228.6l-9.9-4.9c-0.5-0.2-1.1,0-1.3,0.5l0,0c-0.2,0.5,0,1.1,0.5,1.3l9.9,4.9
				c0.5,0.2,1.1,0,1.3-0.5l0,0C481.5,229.4,481.3,228.8,480.8,228.6z"/>
			<path id="XMLID_40_" class="st4" d="M481.1,228.7l-7.6-8c-0.4-0.4-1-0.4-1.4,0l0,0c-0.4,0.4-0.4,1,0,1.4l7.6,8
				c0.4,0.4,1,0.4,1.4,0l0,0C481.5,229.8,481.5,229.1,481.1,228.7z"/>
			<path id="XMLID_43_" class="st4" d="M483.1,225.4l-9.9-4.9c-0.5-0.2-1.1,0-1.3,0.5l0,0c-0.2,0.5,0,1.1,0.5,1.3l9.9,4.9
				c0.5,0.2,1.1,0,1.3-0.5l0,0C483.8,226.3,483.6,225.7,483.1,225.4z"/>
			<path id="XMLID_42_" class="st4" d="M483.4,225.6l-7.6-8c-0.4-0.4-1-0.4-1.4,0l0,0c-0.4,0.4-0.4,1,0,1.4l7.6,8
				c0.4,0.4,1,0.4,1.4,0l0,0C483.7,226.7,483.8,226,483.4,225.6z"/>
			<path id="XMLID_45_" class="st4" d="M485.4,222.4l-9.9-4.9c-0.5-0.2-1.1,0-1.3,0.5l0,0c-0.2,0.5,0,1.1,0.5,1.3l9.9,4.9
				c0.5,0.2,1.1,0,1.3-0.5l0,0C486.1,223.2,485.9,222.6,485.4,222.4z"/>
			<path id="XMLID_44_" class="st4" d="M485.6,222.6l-7.6-8c-0.4-0.4-1-0.4-1.4,0l0,0c-0.4,0.4-0.4,1,0,1.4l7.6,8
				c0.4,0.4,1,0.4,1.4,0l0,0C486,223.6,486,223,485.6,222.6z"/>
			<path id="XMLID_47_" class="st4" d="M487.6,219.3l-9.9-4.9c-0.5-0.2-1.1,0-1.3,0.5l0,0c-0.2,0.5,0,1.1,0.5,1.3l9.9,4.9
				c0.5,0.2,1.1,0,1.3-0.5l0,0C488.3,220.2,488.1,219.6,487.6,219.3z"/>
			<path id="XMLID_46_" class="st4" d="M487.8,219.5l-7.6-8c-0.4-0.4-1-0.4-1.4,0l0,0c-0.4,0.4-0.4,1,0,1.4l7.6,8
				c0.4,0.4,1,0.4,1.4,0l0,0C488.2,220.5,488.2,219.9,487.8,219.5z"/>
			<path id="XMLID_50_" class="st4" d="M490.1,216.5l-7.6-8c-0.4-0.4-1-0.4-1.4,0l0,0c-0.4,0.4-0.4,1,0,1.4l7.6,8
				c0.4,0.4,1,0.4,1.4,0l0,0C490.5,217.5,490.5,216.9,490.1,216.5z"/>
			<path id="XMLID_52_" class="st4" d="M492.4,213.4l-7.6-8c-0.4-0.4-1-0.4-1.4,0l0,0c-0.4,0.4-0.4,1,0,1.4l7.6,8
				c0.4,0.4,1,0.4,1.4,0l0,0C492.7,214.4,492.8,213.8,492.4,213.4z"/>
			<path id="XMLID_54_" class="st4" d="M494.6,210.3l-7.6-8c-0.4-0.4-1-0.4-1.4,0l0,0c-0.4,0.4-0.4,1,0,1.4l7.6,8
				c0.4,0.4,1,0.4,1.4,0l0,0C495,211.4,495,210.7,494.6,210.3z"/>
			<path id="XMLID_56_" class="st4" d="M497.1,207.5l-5-9.8c-0.3-0.5-0.9-0.7-1.3-0.4l0,0c-0.5,0.3-0.7,0.9-0.4,1.3l5,9.8
				c0.3,0.5,0.9,0.7,1.3,0.4l0,0C497.1,208.6,497.3,208,497.1,207.5z"/>
			<path id="XMLID_49_" class="st4" d="M489.8,216.2l-9.9-4.9c-0.5-0.2-1.1,0-1.3,0.5l0,0c-0.2,0.5,0,1.1,0.5,1.3l9.9,4.9
				c0.5,0.2,1.1,0,1.3-0.5l0,0C490.5,217.1,490.3,216.5,489.8,216.2z"/>
			<path id="XMLID_51_" class="st4" d="M492.1,213.2l-9.9-4.9c-0.5-0.2-1.1,0-1.3,0.5l0,0c-0.2,0.5,0,1.1,0.5,1.3l9.9,4.9
				c0.5,0.2,1.1,0,1.3-0.5l0,0C492.8,214,492.6,213.4,492.1,213.2z"/>
			<path id="XMLID_53_" class="st4" d="M494.4,210.1l-9.9-4.9c-0.5-0.2-1.1,0-1.3,0.5l0,0c-0.2,0.5,0,1.1,0.5,1.3l9.9,4.9
				c0.5,0.2,1.1,0,1.3-0.5l0,0C495.1,211,494.8,210.4,494.4,210.1z"/>
			<path id="XMLID_55_" class="st4" d="M496.6,207l-9.9-4.9c-0.5-0.2-1.1,0-1.3,0.5l0,0c-0.2,0.5,0,1.1,0.5,1.3l9.9,4.9
				c0.5,0.2,1.1,0,1.3-0.5l0,0C497.3,207.9,497.1,207.3,496.6,207z"/>
		</g>
	</g>
</g>
</svg>
